g field2023_athletics-slope-1
v 4.41067 0.169708 1.16221e-09
v 5.25 0.169708 1.16221e-09
v 4.41067 1.66971 1.16221e-09
v 5.25 1.66971 1.16221e-09
v 0.75 0.169708 -1
v 0.75 0.169708 1.16221e-09
v 0.75 1.66971 -1
v 0.75 1.66971 1.16221e-09
v 5.25 0.169708 -1
v 5.25 1.66971 -1
v 1.58933 1.66971 1.16221e-09
v 1.58933 0.169708 1.16221e-09
v 4.00927 0.169708 -0.0489379
v 2.39377 0.169708 -0.0816076
v 1.99073 0.169708 -0.0489379
v 3.60623 0.169708 -0.0816076
v 3.20219 0.169708 -0.0979559
v 2.79781 0.169708 -0.0979559
v 3.60623 1.66971 -0.0816076
v 4.00927 1.66971 -0.0489379
v 1.99073 1.66971 -0.0489379
v 2.39377 1.66971 -0.0816076
v 2.79781 1.66971 -0.0979559
v 3.20219 1.66971 -0.0979559
vn 0 0 1
vn -1 0 0
vn 0 0 -1
vn 1 0 0
vn 0 -1 0
vn 0 1 0
vn 0.121022 0 0.99265
vn 0.0807915 0 0.996731
vn 0.0404288 0 0.999182
vn -0.0404288 0 0.999182
vn -0.0807916 0 0.996731
vn -0.121022 0 0.99265
f 1//1 2//1 3//1
f 3//1 2//1 4//1
f 5//2 6//2 7//2
f 7//2 6//2 8//2
f 9//3 5//3 10//3
f 10//3 5//3 7//3
f 2//4 9//4 4//4
f 4//4 9//4 10//4
f 11//1 8//1 12//1
f 12//1 8//1 6//1
f 13//5 9//5 1//5
f 1//5 9//5 2//5
f 14//5 15//5 5//5
f 5//5 15//5 12//5
f 5//5 12//5 6//5
f 13//5 16//5 9//5
f 9//5 16//5 17//5
f 9//5 17//5 5//5
f 5//5 17//5 18//5
f 5//5 18//5 14//5
f 19//6 20//6 10//6
f 10//6 20//6 3//6
f 10//6 3//6 4//6
f 21//6 7//6 11//6
f 11//6 7//6 8//6
f 21//6 22//6 7//6
f 7//6 22//6 23//6
f 7//6 23//6 10//6
f 10//6 23//6 24//6
f 10//6 24//6 19//6
f 11//7 12//7 21//7
f 21//7 12//7 15//7
f 21//8 15//8 22//8
f 22//8 15//8 14//8
f 22//9 14//9 23//9
f 23//9 14//9 18//9
f 23//1 18//1 24//1
f 24//1 18//1 17//1
f 24//10 17//10 19//10
f 19//10 17//10 16//10
f 19//11 16//11 20//11
f 20//11 16//11 13//11
f 20//12 13//12 3//12
f 3//12 13//12 1//12
