g field2023_athletics-step_right-3
v 9.15 -1.05 -0.2
v 9.15 -1.65 0.2
v 9.55 -1.05 -0.2
v 9.55 -1.65 0.2
v 9.15 -1.05 -1
v 9.55 -1.05 -1
v 9.15 -1.85 -1
v 9.55 -1.85 -1
v 9.15 -1.85 0.2
v 9.55 -1.85 0.2
vn 4.98831e-15 0.5547 0.83205
vn 0 1 1.11022e-16
vn -5.9952e-15 1.11022e-16 -1
vn 0 -1 -1.11022e-16
vn 5.9952e-15 -1.11022e-16 1
vn -1 -6.77927e-31 5.9952e-15
vn 1 6.77927e-31 -5.9952e-15
f 1//1 2//1 3//1
f 3//1 2//1 4//1
f 5//2 1//2 6//2
f 6//2 1//2 3//2
f 7//3 5//3 8//3
f 8//3 5//3 6//3
f 9//4 7//4 10//4
f 10//4 7//4 8//4
f 2//5 9//5 4//5
f 4//5 9//5 10//5
f 1//6 5//6 2//6
f 2//6 5//6 7//6
f 2//6 7//6 9//6
f 6//7 3//7 8//7
f 8//7 3//7 4//7
f 8//7 4//7 10//7
