g field2023_athletics-step_right-4
v 10.15 -0.95 -0.2
v 10.15 -0.35 0.2
v 9.75 -0.95 -0.2
v 9.75 -0.35 0.2
v 10.15 -0.95 -1
v 9.75 -0.95 -1
v 10.15 -0.15 -1
v 9.75 -0.15 -1
v 10.15 -0.15 0.2
v 9.75 -0.15 0.2
vn -1.00456e-32 -0.5547 0.83205
vn -2.46519e-32 -1 1.11022e-16
vn -4.36133e-33 -1.11022e-16 -1
vn 2.46519e-32 1 -1.11022e-16
vn 4.36133e-33 1.11022e-16 1
vn 1 1.2326e-32 3.88578e-16
vn -1 -1.2326e-32 -3.88578e-16
f 1//1 2//1 3//1
f 3//1 2//1 4//1
f 5//2 1//2 6//2
f 6//2 1//2 3//2
f 7//3 5//3 8//3
f 8//3 5//3 6//3
f 9//4 7//4 10//4
f 10//4 7//4 8//4
f 2//5 9//5 4//5
f 4//5 9//5 10//5
f 1//6 5//6 2//6
f 2//6 5//6 7//6
f 2//6 7//6 9//6
f 6//7 3//7 8//7
f 8//7 3//7 4//7
f 8//7 4//7 10//7
