g field2023_athletics-stair-1
v 12.85 0.675493 1.19209e-08
v 13.05 0.675493 1.19209e-08
v 12.85 1.37549 1.19209e-08
v 13.05 1.37549 1.19209e-08
v 12.85 0.675493 -1
v 12.85 1.37549 -1
v 16.35 0.675493 -1
v 16.35 1.37549 -1
v 16.35 0.675493 1.5
v 16.35 1.37549 1.5
v 16.13 0.675493 1.5
v 16.13 1.37549 1.5
v 16.13 0.675493 1.48
v 16.13 1.37549 1.48
v 16.15 0.675493 1.48
v 16.15 1.37549 1.48
v 16.15 0.675493 1.3
v 16.15 1.37549 1.3
v 15.89 0.675493 1.3
v 15.89 1.37549 1.3
v 15.89 0.675493 1.28
v 15.89 1.37549 1.28
v 15.91 0.675493 1.28
v 15.91 1.37549 1.28
v 15.91 0.675493 1.1
v 15.91 1.37549 1.1
v 15.65 0.675493 1.1
v 15.65 1.37549 1.1
v 15.65 0.675493 1.08
v 15.65 1.37549 1.08
v 15.67 0.675493 1.08
v 15.67 1.37549 1.08
v 15.67 0.675493 0.9
v 15.67 1.37549 0.9
v 15.41 0.675493 0.9
v 15.41 1.37549 0.9
v 15.41 0.675493 0.88
v 15.41 1.37549 0.88
v 15.43 0.675493 0.88
v 15.43 1.37549 0.88
v 15.43 0.675493 0.7
v 15.43 1.37549 0.7
v 15.17 0.675493 0.7
v 15.17 1.37549 0.7
v 15.17 0.675493 0.68
v 15.17 1.37549 0.68
v 15.19 0.675493 0.68
v 15.19 1.37549 0.68
v 15.19 0.675493 0.5
v 15.19 1.37549 0.5
v 14.93 0.675493 0.5
v 14.93 1.37549 0.5
v 14.93 0.675493 0.48
v 14.93 1.37549 0.48
v 14.95 0.675493 0.48
v 14.95 1.37549 0.48
v 14.95 0.675493 0.3
v 14.95 1.37549 0.3
v 14.69 0.675493 0.3
v 14.69 1.37549 0.3
v 14.69 0.675493 0.28
v 14.69 1.37549 0.28
v 14.71 0.675493 0.28
v 14.71 1.37549 0.28
v 14.71 0.675493 0.1
v 14.71 1.37549 0.1
v 14.45 0.675493 0.1
v 14.45 1.37549 0.1
v 14.45 0.675493 0.08
v 14.45 1.37549 0.08
v 14.47 0.675493 0.08
v 14.47 1.37549 0.08
v 14.47 0.675493 -0.1
v 14.47 1.37549 -0.1
v 14.21 0.675493 -0.1
v 14.21 1.37549 -0.1
v 14.21 0.675493 -0.12
v 14.21 1.37549 -0.12
v 14.23 0.675493 -0.12
v 14.23 1.37549 -0.12
v 14.23 0.675493 -0.3
v 14.23 1.37549 -0.3
v 13.97 0.675493 -0.3
v 13.97 1.37549 -0.3
v 13.97 0.675493 -0.32
v 13.97 1.37549 -0.32
v 13.99 0.675493 -0.32
v 13.99 1.37549 -0.32
v 13.99 0.675493 -0.5
v 13.99 1.37549 -0.5
v 13.51 0.675493 -0.5
v 13.51 1.37549 -0.5
v 13.51 0.675493 -0.32
v 13.51 1.37549 -0.32
v 13.53 0.675493 -0.32
v 13.53 1.37549 -0.32
v 13.53 0.675493 -0.3
v 13.53 1.37549 -0.3
v 13.27 0.675493 -0.3
v 13.27 1.37549 -0.3
v 13.27 0.675493 -0.12
v 13.27 1.37549 -0.12
v 13.29 0.675493 -0.12
v 13.29 1.37549 -0.12
v 13.29 0.675493 -0.1
v 13.29 1.37549 -0.1
v 13.03 0.675493 -0.1
v 13.03 1.37549 -0.1
v 13.03 0.675493 -0.02
v 13.03 1.37549 -0.02
v 13.05 0.675493 -0.02
v 13.05 1.37549 -0.02
v 13.05 0.675493 1.19209e-08
v 13.05 1.37549 1.19209e-08
v 16.13 0.675493 1.5
v 16.13 0.675493 1.48
v 16.15 0.675493 1.48
v 15.89 0.675493 1.3
v 15.89 0.675493 1.28
v 15.91 0.675493 1.28
v 15.65 0.675493 1.1
v 15.65 0.675493 1.08
v 15.67 0.675493 1.08
v 13.99 0.675493 -0.32
v 13.99 0.675493 -0.5
v 16.35 0.675493 -1
v 16.35 0.675493 1.5
v 16.15 0.675493 1.3
v 15.67 0.675493 0.9
v 15.41 0.675493 0.9
v 15.43 0.675493 0.88
v 15.41 0.675493 0.88
v 15.91 0.675493 1.1
v 15.43 0.675493 0.7
v 13.29 0.675493 -0.12
v 13.29 0.675493 -0.1
v 13.27 0.675493 -0.12
v 13.03 0.675493 -0.1
v 13.27 0.675493 -0.3
v 15.17 0.675493 0.7
v 15.17 0.675493 0.68
v 15.19 0.675493 0.68
v 12.85 0.675493 -1
v 13.51 0.675493 -0.5
v 13.51 0.675493 -0.32
v 15.19 0.675493 0.5
v 13.53 0.675493 -0.32
v 13.53 0.675493 -0.3
v 12.85 0.675493 1.19209e-08
v 13.03 0.675493 -0.02
v 13.05 0.675493 1.19209e-08
v 13.05 0.675493 -0.02
v 14.93 0.675493 0.5
v 14.93 0.675493 0.48
v 14.95 0.675493 0.48
v 14.71 0.675493 0.28
v 14.71 0.675493 0.1
v 16.35 0.675493 -1
v 14.69 0.675493 0.3
v 14.69 0.675493 0.28
v 14.95 0.675493 0.3
v 14.45 0.675493 0.1
v 14.45 0.675493 0.08
v 14.47 0.675493 0.08
v 14.23 0.675493 -0.3
v 13.97 0.675493 -0.3
v 13.99 0.675493 -0.32
v 13.97 0.675493 -0.32
v 14.47 0.675493 -0.1
v 14.23 0.675493 -0.12
v 14.21 0.675493 -0.1
v 14.21 0.675493 -0.12
v 13.05 1.37549 1.19209e-08
v 13.05 1.37549 -0.02
v 13.03 1.37549 -0.02
v 12.85 1.37549 1.19209e-08
v 13.03 1.37549 -0.1
v 12.85 1.37549 -1
v 13.29 1.37549 -0.1
v 13.29 1.37549 -0.12
v 13.27 1.37549 -0.12
v 13.97 1.37549 -0.32
v 13.97 1.37549 -0.3
v 13.99 1.37549 -0.32
v 14.23 1.37549 -0.3
v 13.99 1.37549 -0.5
v 14.45 1.37549 0.08
v 14.45 1.37549 0.1
v 14.47 1.37549 0.08
v 14.71 1.37549 0.1
v 14.47 1.37549 -0.1
v 13.53 1.37549 -0.3
v 13.53 1.37549 -0.32
v 13.51 1.37549 -0.32
v 13.27 1.37549 -0.3
v 14.69 1.37549 0.28
v 14.69 1.37549 0.3
v 14.71 1.37549 0.28
v 14.95 1.37549 0.3
v 16.35 1.37549 -1
v 14.23 1.37549 -0.12
v 14.21 1.37549 -0.1
v 14.21 1.37549 -0.12
v 14.93 1.37549 0.48
v 14.93 1.37549 0.5
v 14.95 1.37549 0.48
v 15.19 1.37549 0.5
v 13.51 1.37549 -0.5
v 12.85 1.37549 -1
v 15.65 1.37549 1.08
v 15.65 1.37549 1.1
v 15.67 1.37549 1.08
v 15.91 1.37549 1.1
v 15.67 1.37549 0.9
v 15.43 1.37549 0.7
v 15.43 1.37549 0.88
v 16.13 1.37549 1.48
v 16.13 1.37549 1.5
v 16.15 1.37549 1.48
v 16.35 1.37549 1.5
v 16.15 1.37549 1.3
v 15.17 1.37549 0.68
v 15.17 1.37549 0.7
v 15.19 1.37549 0.68
v 15.41 1.37549 0.88
v 15.41 1.37549 0.9
v 15.91 1.37549 1.28
v 15.89 1.37549 1.3
v 15.89 1.37549 1.28
vn 0 0 1
vn -1 0 2.22045e-16
vn 0 0 -1
vn 1 0 0
vn 0 -1 0
vn 0 1 0
f 1//1 2//1 3//1
f 3//1 2//1 4//1
f 5//2 1//2 6//2
f 6//2 1//2 3//2
f 7//3 5//3 8//3
f 8//3 5//3 6//3
f 9//4 7//4 10//4
f 10//4 7//4 8//4
f 11//1 9//1 12//1
f 12//1 9//1 10//1
f 13//2 11//2 14//2
f 14//2 11//2 12//2
f 15//3 13//3 16//3
f 16//3 13//3 14//3
f 17//2 15//2 18//2
f 18//2 15//2 16//2
f 19//1 17//1 20//1
f 20//1 17//1 18//1
f 21//2 19//2 22//2
f 22//2 19//2 20//2
f 23//3 21//3 24//3
f 24//3 21//3 22//3
f 25//2 23//2 26//2
f 26//2 23//2 24//2
f 27//1 25//1 28//1
f 28//1 25//1 26//1
f 29//2 27//2 30//2
f 30//2 27//2 28//2
f 31//3 29//3 32//3
f 32//3 29//3 30//3
f 33//2 31//2 34//2
f 34//2 31//2 32//2
f 35//1 33//1 36//1
f 36//1 33//1 34//1
f 37//2 35//2 38//2
f 38//2 35//2 36//2
f 39//3 37//3 40//3
f 40//3 37//3 38//3
f 41//2 39//2 42//2
f 42//2 39//2 40//2
f 43//1 41//1 44//1
f 44//1 41//1 42//1
f 45//2 43//2 46//2
f 46//2 43//2 44//2
f 47//3 45//3 48//3
f 48//3 45//3 46//3
f 49//2 47//2 50//2
f 50//2 47//2 48//2
f 51//1 49//1 52//1
f 52//1 49//1 50//1
f 53//2 51//2 54//2
f 54//2 51//2 52//2
f 55//3 53//3 56//3
f 56//3 53//3 54//3
f 57//2 55//2 58//2
f 58//2 55//2 56//2
f 59//1 57//1 60//1
f 60//1 57//1 58//1
f 61//2 59//2 62//2
f 62//2 59//2 60//2
f 63//3 61//3 64//3
f 64//3 61//3 62//3
f 65//2 63//2 66//2
f 66//2 63//2 64//2
f 67//1 65//1 68//1
f 68//1 65//1 66//1
f 69//2 67//2 70//2
f 70//2 67//2 68//2
f 71//3 69//3 72//3
f 72//3 69//3 70//3
f 73//2 71//2 74//2
f 74//2 71//2 72//2
f 75//1 73//1 76//1
f 76//1 73//1 74//1
f 77//2 75//2 78//2
f 78//2 75//2 76//2
f 79//3 77//3 80//3
f 80//3 77//3 78//3
f 81//2 79//2 82//2
f 82//2 79//2 80//2
f 83//1 81//1 84//1
f 84//1 81//1 82//1
f 85//2 83//2 86//2
f 86//2 83//2 84//2
f 87//3 85//3 88//3
f 88//3 85//3 86//3
f 89//2 87//2 90//2
f 90//2 87//2 88//2
f 91//1 89//1 92//1
f 92//1 89//1 90//1
f 93//4 91//4 94//4
f 94//4 91//4 92//4
f 95//3 93//3 96//3
f 96//3 93//3 94//3
f 97//4 95//4 98//4
f 98//4 95//4 96//4
f 99//1 97//1 100//1
f 100//1 97//1 98//1
f 101//4 99//4 102//4
f 102//4 99//4 100//4
f 103//3 101//3 104//3
f 104//3 101//3 102//3
f 105//4 103//4 106//4
f 106//4 103//4 104//4
f 107//1 105//1 108//1
f 108//1 105//1 106//1
f 109//4 107//4 110//4
f 110//4 107//4 108//4
f 111//3 109//3 112//3
f 112//3 109//3 110//3
f 113//4 111//4 114//4
f 114//4 111//4 112//4
f 115//5 116//5 117//5
f 118//5 119//5 120//5
f 121//5 122//5 123//5
f 124//5 125//5 126//5
f 115//5 117//5 127//5
f 127//5 117//5 128//5
f 127//5 128//5 126//5
f 129//5 130//5 131//5
f 131//5 130//5 132//5
f 118//5 120//5 128//5
f 128//5 120//5 133//5
f 128//5 133//5 126//5
f 121//5 123//5 133//5
f 133//5 123//5 129//5
f 133//5 129//5 126//5
f 126//5 129//5 131//5
f 126//5 131//5 134//5
f 135//5 136//5 137//5
f 137//5 136//5 138//5
f 137//5 138//5 139//5
f 140//5 141//5 142//5
f 126//5 125//5 143//5
f 143//5 125//5 144//5
f 143//5 144//5 145//5
f 146//5 126//5 142//5
f 142//5 126//5 134//5
f 142//5 134//5 140//5
f 147//5 148//5 145//5
f 145//5 148//5 139//5
f 145//5 139//5 143//5
f 143//5 139//5 138//5
f 143//5 138//5 149//5
f 149//5 138//5 150//5
f 149//5 150//5 151//5
f 151//5 150//5 152//5
f 153//5 154//5 155//5
f 156//5 157//5 158//5
f 159//5 160//5 156//5
f 159//5 156//5 161//5
f 161//5 156//5 158//5
f 161//5 158//5 155//5
f 155//5 158//5 146//5
f 155//5 146//5 153//5
f 162//5 163//5 164//5
f 165//5 166//5 167//5
f 167//5 166//5 168//5
f 169//5 158//5 164//5
f 164//5 158//5 157//5
f 164//5 157//5 162//5
f 167//5 158//5 165//5
f 165//5 158//5 169//5
f 165//5 169//5 170//5
f 170//5 169//5 171//5
f 170//5 171//5 172//5
f 173//6 174//6 175//6
f 173//6 175//6 176//6
f 176//6 175//6 177//6
f 176//6 177//6 178//6
f 179//6 180//6 181//6
f 182//6 183//6 184//6
f 184//6 183//6 185//6
f 184//6 185//6 186//6
f 187//6 188//6 189//6
f 189//6 188//6 190//6
f 189//6 190//6 191//6
f 192//6 193//6 194//6
f 192//6 194//6 195//6
f 195//6 194//6 178//6
f 195//6 178//6 181//6
f 181//6 178//6 177//6
f 181//6 177//6 179//6
f 196//6 197//6 198//6
f 198//6 197//6 199//6
f 198//6 199//6 190//6
f 190//6 199//6 200//6
f 190//6 200//6 191//6
f 191//6 200//6 201//6
f 191//6 201//6 202//6
f 202//6 201//6 203//6
f 204//6 205//6 206//6
f 206//6 205//6 207//6
f 194//6 208//6 209//6
f 209//6 208//6 186//6
f 209//6 186//6 200//6
f 200//6 186//6 185//6
f 200//6 185//6 201//6
f 210//6 211//6 212//6
f 212//6 211//6 213//6
f 212//6 213//6 214//6
f 200//6 215//6 216//6
f 217//6 218//6 219//6
f 219//6 218//6 220//6
f 219//6 220//6 221//6
f 221//6 220//6 200//6
f 222//6 223//6 224//6
f 224//6 223//6 215//6
f 224//6 215//6 207//6
f 207//6 215//6 200//6
f 207//6 200//6 206//6
f 206//6 200//6 199//6
f 225//6 226//6 216//6
f 216//6 226//6 214//6
f 216//6 214//6 200//6
f 200//6 214//6 213//6
f 200//6 213//6 221//6
f 221//6 213//6 227//6
f 221//6 227//6 228//6
f 228//6 227//6 229//6
