g link1
v 0.02 -0.02 -0.495
v 0.02 0.02 -0.495
v 0.02 -0.02 0.495
v 0.02 0.02 0.495
v 0.0196962 -0.02 -0.498473
v 0.0196962 0.02 -0.498473
v 0.0187938 -0.02 -0.50184
v 0.0187938 0.02 -0.50184
v 0.0173205 -0.02 -0.505
v 0.0173205 0.02 -0.505
v 0.0153209 -0.02 -0.507856
v 0.0153209 0.02 -0.507856
v 0.0128557 -0.02 -0.510321
v 0.0128557 0.02 -0.510321
v 0.01 -0.02 -0.512321
v 0.01 0.02 -0.512321
v 0.0068404 -0.02 -0.513794
v 0.0068404 0.02 -0.513794
v 0.00347296 -0.02 -0.514696
v 0.00347296 0.02 -0.514696
v -1.72282e-09 -0.02 -0.515
v -1.72282e-09 0.02 -0.515
v -0.00347296 -0.02 -0.514696
v -0.00347296 0.02 -0.514696
v -0.0068404 -0.02 -0.513794
v -0.0068404 0.02 -0.513794
v -0.01 -0.02 -0.512321
v -0.01 0.02 -0.512321
v -0.0128558 -0.02 -0.510321
v -0.0128558 0.02 -0.510321
v -0.0153209 -0.02 -0.507856
v -0.0153209 0.02 -0.507856
v -0.0173205 -0.02 -0.505
v -0.0173205 0.02 -0.505
v -0.0187938 -0.02 -0.50184
v -0.0187938 0.02 -0.50184
v -0.0196962 -0.02 -0.498473
v -0.0196962 0.02 -0.498473
v -0.02 -0.02 -0.495
v -0.02 0.02 -0.495
v -0.02 -0.02 0.495
v -0.02 0.02 0.495
v -0.0196962 -0.02 0.498473
v -0.0196962 0.02 0.498473
v -0.0187938 -0.02 0.50184
v -0.0187938 0.02 0.50184
v -0.0173205 -0.02 0.505
v -0.0173205 0.02 0.505
v -0.0153209 -0.02 0.507856
v -0.0153209 0.02 0.507856
v -0.0128558 -0.02 0.510321
v -0.0128558 0.02 0.510321
v -0.01 -0.02 0.512321
v -0.01 0.02 0.512321
v -0.0068404 -0.02 0.513794
v -0.0068404 0.02 0.513794
v -0.00347296 -0.02 0.514696
v -0.00347296 0.02 0.514696
v -1.72282e-09 -0.02 0.515
v -1.72282e-09 0.02 0.515
v 0.00347296 -0.02 0.514696
v 0.00347296 0.02 0.514696
v 0.0068404 -0.02 0.513794
v 0.0068404 0.02 0.513794
v 0.01 -0.02 0.512321
v 0.01 0.02 0.512321
v 0.0128557 -0.02 0.510321
v 0.0128557 0.02 0.510321
v 0.0153209 -0.02 0.507856
v 0.0153209 0.02 0.507856
v 0.0173205 -0.02 0.505
v 0.0173205 0.02 0.505
v 0.0187938 -0.02 0.50184
v 0.0187938 0.02 0.50184
v 0.0196962 -0.02 0.498473
v 0.0196962 0.02 0.498473
v 0.02 -0.02 0.495
v 0.02 0.02 0.495
v -1.72282e-09 0.02 -0.515
v -0.00347296 0.02 -0.514696
v 0.02 0.02 -0.495
v -0.0196962 0.02 0.498473
v -0.0187938 0.02 0.50184
v 0.0187938 0.02 -0.50184
v 0.0173205 0.02 -0.505
v 0.0153209 0.02 -0.507856
v 0.0128557 0.02 -0.510321
v 0.01 0.02 -0.512321
v -0.0068404 0.02 -0.513794
v -0.01 0.02 -0.512321
v -0.0128558 0.02 -0.510321
v -0.0153209 0.02 -0.507856
v -0.0173205 0.02 -0.505
v -0.0187938 0.02 -0.50184
v 0.0068404 0.02 -0.513794
v 0.00347296 0.02 -0.514696
v -0.0196962 0.02 -0.498473
v -0.02 0.02 -0.495
v -0.02 0.02 0.495
v -0.00347296 0.02 0.514696
v -1.72282e-09 0.02 0.515
v 0.00347296 0.02 0.514696
v 0.0068404 0.02 0.513794
v 0.0196962 0.02 -0.498473
v -0.0173205 0.02 0.505
v 0.02 0.02 0.495
v -0.0153209 0.02 0.507856
v -0.0128558 0.02 0.510321
v -0.01 0.02 0.512321
v -0.0068404 0.02 0.513794
v 0.01 0.02 0.512321
v 0.0128557 0.02 0.510321
v 0.0153209 0.02 0.507856
v 0.0173205 0.02 0.505
v 0.0187938 0.02 0.50184
v 0.0196962 0.02 0.498473
v 0.00347296 -0.02 -0.514696
v 0.02 -0.02 -0.495
v -1.72282e-09 -0.02 -0.515
v -0.00347296 -0.02 -0.514696
v -0.0196962 -0.02 -0.498473
v -0.0187938 -0.02 -0.50184
v -0.0173205 -0.02 -0.505
v -0.0153209 -0.02 -0.507856
v -0.0128558 -0.02 -0.510321
v -0.01 -0.02 -0.512321
v -0.0068404 -0.02 -0.513794
v 0.0128557 -0.02 -0.510321
v 0.0153209 -0.02 -0.507856
v 0.00347296 -0.02 0.514696
v -1.72282e-09 -0.02 0.515
v 0.02 -0.02 0.495
v -0.00347296 -0.02 0.514696
v -0.0187938 -0.02 0.50184
v -0.0196962 -0.02 0.498473
v -0.02 -0.02 0.495
v -0.02 -0.02 -0.495
v 0.0068404 -0.02 -0.513794
v 0.01 -0.02 -0.512321
v 0.0173205 -0.02 -0.505
v 0.0187938 -0.02 -0.50184
v 0.0196962 -0.02 -0.498473
v 0.0196962 -0.02 0.498473
v 0.0187938 -0.02 0.50184
v -0.0068404 -0.02 0.513794
v -0.01 -0.02 0.512321
v -0.0128558 -0.02 0.510321
v -0.0153209 -0.02 0.507856
v -0.0173205 -0.02 0.505
v 0.0173205 -0.02 0.505
v 0.0153209 -0.02 0.507856
v 0.0128557 -0.02 0.510321
v 0.01 -0.02 0.512321
v 0.0068404 -0.02 0.513794
vn 1 0 -6.25146e-17
vn 0.996195 0 -0.0871555
vn 0.965926 0 -0.25882
vn 0.90631 0 -0.422613
vn 0.819149 0 -0.573581
vn 0.707106 0 -0.707108
vn 0.573576 0 -0.819152
vn 0.422624 0 -0.906305
vn 0.258817 0 -0.965926
vn 0.0871613 0 -0.996194
vn -0.0871614 0 -0.996194
vn -0.258817 0 -0.965926
vn -0.422624 0 -0.906305
vn -0.573575 0 -0.819153
vn -0.707106 0 -0.707108
vn -0.819149 0 -0.573581
vn -0.90631 0 -0.422613
vn -0.965926 0 -0.25882
vn -0.996195 0 -0.0871544
vn -1 0 6.25146e-17
vn -0.996195 0 0.0871548
vn -0.965926 0 0.258819
vn -0.906308 0 0.422618
vn -0.819152 0 0.573577
vn -0.707108 0 0.707106
vn -0.573575 0 0.819153
vn -0.42262 0 0.906307
vn -0.258817 0 0.965926
vn -0.0871571 0 0.996195
vn 0.087157 0 0.996195
vn 0.258817 0 0.965926
vn 0.42262 0 0.906307
vn 0.573576 0 0.819152
vn 0.707108 0 0.707106
vn 0.819152 0 0.573577
vn 0.906308 0 0.422618
vn 0.965926 0 0.258819
vn 0.996195 0 0.0871559
vn 0 1 0
vn 0 -1 0
f 1//1 2//1 3//1
f 3//1 2//1 4//1
f 2//2 1//2 5//2
f 2//2 5//2 6//2
f 6//3 5//3 7//3
f 6//3 7//3 8//3
f 8//4 7//4 9//4
f 8//4 9//4 10//4
f 10//5 9//5 11//5
f 10//5 11//5 12//5
f 12//6 11//6 13//6
f 12//6 13//6 14//6
f 14//7 13//7 15//7
f 14//7 15//7 16//7
f 16//8 15//8 17//8
f 16//8 17//8 18//8
f 18//9 17//9 19//9
f 18//9 19//9 20//9
f 20//10 19//10 21//10
f 20//10 21//10 22//10
f 22//11 21//11 23//11
f 22//11 23//11 24//11
f 24//12 23//12 25//12
f 24//12 25//12 26//12
f 26//13 25//13 27//13
f 26//13 27//13 28//13
f 28//14 27//14 29//14
f 28//14 29//14 30//14
f 30//15 29//15 31//15
f 30//15 31//15 32//15
f 32//16 31//16 33//16
f 32//16 33//16 34//16
f 34//17 33//17 35//17
f 34//17 35//17 36//17
f 36//18 35//18 37//18
f 36//18 37//18 38//18
f 38//19 37//19 39//19
f 38//19 39//19 40//19
f 41//20 42//20 39//20
f 39//20 42//20 40//20
f 42//21 41//21 43//21
f 42//21 43//21 44//21
f 44//22 43//22 45//22
f 44//22 45//22 46//22
f 46//23 45//23 47//23
f 46//23 47//23 48//23
f 48//24 47//24 49//24
f 48//24 49//24 50//24
f 50//25 49//25 51//25
f 50//25 51//25 52//25
f 52//26 51//26 53//26
f 52//26 53//26 54//26
f 54//27 53//27 55//27
f 54//27 55//27 56//27
f 56//28 55//28 57//28
f 56//28 57//28 58//28
f 58//29 57//29 59//29
f 58//29 59//29 60//29
f 60//30 59//30 61//30
f 60//30 61//30 62//30
f 62//31 61//31 63//31
f 62//31 63//31 64//31
f 64//32 63//32 65//32
f 64//32 65//32 66//32
f 66//33 65//33 67//33
f 66//33 67//33 68//33
f 68//34 67//34 69//34
f 68//34 69//34 70//34
f 70//35 69//35 71//35
f 70//35 71//35 72//35
f 72//36 71//36 73//36
f 72//36 73//36 74//36
f 74//37 73//37 75//37
f 74//37 75//37 76//37
f 76//38 75//38 77//38
f 76//38 77//38 78//38
f 79//39 80//39 81//39
f 82//39 83//39 78//39
f 84//39 85//39 86//39
f 81//39 87//39 88//39
f 80//39 89//39 81//39
f 81//39 89//39 90//39
f 81//39 90//39 91//39
f 91//39 92//39 81//39
f 81//39 92//39 93//39
f 81//39 93//39 94//39
f 88//39 95//39 81//39
f 81//39 95//39 96//39
f 81//39 96//39 79//39
f 94//39 97//39 81//39
f 81//39 97//39 98//39
f 81//39 98//39 78//39
f 78//39 98//39 99//39
f 78//39 99//39 82//39
f 100//39 101//39 78//39
f 78//39 101//39 102//39
f 78//39 102//39 103//39
f 87//39 81//39 86//39
f 86//39 81//39 104//39
f 86//39 104//39 84//39
f 83//39 105//39 106//39
f 106//39 105//39 107//39
f 106//39 107//39 108//39
f 108//39 109//39 106//39
f 106//39 109//39 110//39
f 106//39 110//39 100//39
f 103//39 111//39 106//39
f 106//39 111//39 112//39
f 106//39 112//39 113//39
f 113//39 114//39 106//39
f 106//39 114//39 115//39
f 106//39 115//39 116//39
f 117//40 118//40 119//40
f 119//40 118//40 120//40
f 121//40 122//40 118//40
f 122//40 123//40 118//40
f 118//40 123//40 124//40
f 118//40 124//40 125//40
f 125//40 126//40 118//40
f 118//40 126//40 127//40
f 118//40 127//40 120//40
f 118//40 128//40 129//40
f 130//40 131//40 132//40
f 132//40 131//40 133//40
f 134//40 135//40 132//40
f 132//40 135//40 136//40
f 132//40 136//40 118//40
f 118//40 136//40 137//40
f 118//40 137//40 121//40
f 117//40 138//40 118//40
f 118//40 138//40 139//40
f 118//40 139//40 128//40
f 129//40 140//40 118//40
f 118//40 140//40 141//40
f 118//40 141//40 142//40
f 132//40 143//40 144//40
f 133//40 145//40 132//40
f 132//40 145//40 146//40
f 132//40 146//40 147//40
f 147//40 148//40 132//40
f 132//40 148//40 149//40
f 132//40 149//40 134//40
f 144//40 150//40 132//40
f 132//40 150//40 151//40
f 132//40 151//40 152//40
f 152//40 153//40 132//40
f 132//40 153//40 154//40
f 132//40 154//40 130//40
